<mxfile host="app.diagrams.net" agent="Mozilla/5.0 (Windows NT 10.0; Win64; x64) AppleWebKit/537.36 (KHTML, like Gecko) Chrome/135.0.0.0 Safari/537.36 OPR/120.0.0.0" version="28.1.0">
  <diagram name="Page-1" id="2a216829-ef6e-dabb-86c1-c78162f3ba2b">
    <mxGraphModel grid="1" page="1" gridSize="10" guides="1" tooltips="1" connect="1" arrows="1" fold="1" pageScale="1" pageWidth="850" pageHeight="1100" background="none" math="0" shadow="0">
      <root>
        <mxCell id="0" />
        <mxCell id="1" parent="0" />
        <mxCell id="MRjY0xQOLoZcfLJGEZMI-1" value="" style="swimlane;whiteSpace=wrap;html=1;startSize=0;" vertex="1" parent="1">
          <mxGeometry x="850" y="-440" width="1560" height="600" as="geometry">
            <mxRectangle x="400" y="-440" width="160" height="30" as="alternateBounds" />
          </mxGeometry>
        </mxCell>
        <mxCell id="MRjY0xQOLoZcfLJGEZMI-6" value="" style="rounded=0;whiteSpace=wrap;html=1;" vertex="1" parent="MRjY0xQOLoZcfLJGEZMI-1">
          <mxGeometry x="30" y="40" width="1490" height="530" as="geometry" />
        </mxCell>
        <mxCell id="MRjY0xQOLoZcfLJGEZMI-2" value="" style="rounded=0;whiteSpace=wrap;html=1;" vertex="1" parent="MRjY0xQOLoZcfLJGEZMI-1">
          <mxGeometry x="30" y="40" width="20" height="110" as="geometry" />
        </mxCell>
        <mxCell id="MRjY0xQOLoZcfLJGEZMI-3" value="" style="rounded=0;whiteSpace=wrap;html=1;" vertex="1" parent="MRjY0xQOLoZcfLJGEZMI-1">
          <mxGeometry x="30" y="150" width="20" height="130" as="geometry" />
        </mxCell>
        <mxCell id="MRjY0xQOLoZcfLJGEZMI-4" value="" style="rounded=0;whiteSpace=wrap;html=1;" vertex="1" parent="MRjY0xQOLoZcfLJGEZMI-1">
          <mxGeometry x="30" y="280" width="20" height="120" as="geometry" />
        </mxCell>
        <mxCell id="MRjY0xQOLoZcfLJGEZMI-7" value="Paciente" style="text;html=1;align=center;verticalAlign=middle;resizable=0;points=[];autosize=1;strokeColor=none;fillColor=none;rotation=-90;" vertex="1" parent="MRjY0xQOLoZcfLJGEZMI-1">
          <mxGeometry x="5" y="90" width="70" height="30" as="geometry" />
        </mxCell>
        <mxCell id="MRjY0xQOLoZcfLJGEZMI-8" value="Sistema Agendamiento" style="text;html=1;align=center;verticalAlign=middle;resizable=0;points=[];autosize=1;strokeColor=none;fillColor=none;rotation=-90;" vertex="1" parent="MRjY0xQOLoZcfLJGEZMI-1">
          <mxGeometry x="-35" y="200" width="150" height="30" as="geometry" />
        </mxCell>
        <mxCell id="MRjY0xQOLoZcfLJGEZMI-25" style="edgeStyle=orthogonalEdgeStyle;rounded=0;orthogonalLoop=1;jettySize=auto;html=1;exitX=1;exitY=0.5;exitDx=0;exitDy=0;" edge="1" parent="MRjY0xQOLoZcfLJGEZMI-1" source="MRjY0xQOLoZcfLJGEZMI-10" target="MRjY0xQOLoZcfLJGEZMI-11">
          <mxGeometry relative="1" as="geometry" />
        </mxCell>
        <mxCell id="MRjY0xQOLoZcfLJGEZMI-10" value="" style="ellipse;whiteSpace=wrap;html=1;aspect=fixed;fillColor=light-dark(#009900,var(--ge-dark-color, #121212));" vertex="1" parent="MRjY0xQOLoZcfLJGEZMI-1">
          <mxGeometry x="65" y="72.5" width="40" height="40" as="geometry" />
        </mxCell>
        <mxCell id="MRjY0xQOLoZcfLJGEZMI-24" style="edgeStyle=orthogonalEdgeStyle;rounded=0;orthogonalLoop=1;jettySize=auto;html=1;exitX=1;exitY=0.5;exitDx=0;exitDy=0;entryX=0;entryY=0.5;entryDx=0;entryDy=0;" edge="1" parent="MRjY0xQOLoZcfLJGEZMI-1" source="MRjY0xQOLoZcfLJGEZMI-11" target="MRjY0xQOLoZcfLJGEZMI-12">
          <mxGeometry relative="1" as="geometry" />
        </mxCell>
        <mxCell id="MRjY0xQOLoZcfLJGEZMI-11" value="Solicitar Cita" style="rounded=0;whiteSpace=wrap;html=1;fillColor=light-dark(#C4FFF9,var(--ge-dark-color, #121212));" vertex="1" parent="MRjY0xQOLoZcfLJGEZMI-1">
          <mxGeometry x="200" y="80" width="80" height="25" as="geometry" />
        </mxCell>
        <mxCell id="MRjY0xQOLoZcfLJGEZMI-19" style="edgeStyle=orthogonalEdgeStyle;rounded=0;orthogonalLoop=1;jettySize=auto;html=1;exitX=0.5;exitY=1;exitDx=0;exitDy=0;entryX=0.5;entryY=0;entryDx=0;entryDy=0;fillColor=#FF1010;" edge="1" parent="MRjY0xQOLoZcfLJGEZMI-1" source="MRjY0xQOLoZcfLJGEZMI-12" target="MRjY0xQOLoZcfLJGEZMI-15">
          <mxGeometry relative="1" as="geometry" />
        </mxCell>
        <mxCell id="_Jctb87DjZkBqsh5vdE3-4" style="edgeStyle=orthogonalEdgeStyle;rounded=0;orthogonalLoop=1;jettySize=auto;html=1;exitX=1;exitY=0.5;exitDx=0;exitDy=0;fillColor=#10FF00;" edge="1" parent="MRjY0xQOLoZcfLJGEZMI-1" source="MRjY0xQOLoZcfLJGEZMI-12" target="_Jctb87DjZkBqsh5vdE3-3">
          <mxGeometry relative="1" as="geometry" />
        </mxCell>
        <mxCell id="MRjY0xQOLoZcfLJGEZMI-12" value="Canal" style="rhombus;whiteSpace=wrap;html=1;fillColor=light-dark(#FFA826,var(--ge-dark-color, #121212));" vertex="1" parent="MRjY0xQOLoZcfLJGEZMI-1">
          <mxGeometry x="350" y="70" width="50" height="45" as="geometry" />
        </mxCell>
        <mxCell id="MRjY0xQOLoZcfLJGEZMI-13" value="Atención al cliente" style="text;html=1;align=center;verticalAlign=middle;resizable=0;points=[];autosize=1;strokeColor=none;fillColor=none;rotation=-90;" vertex="1" parent="MRjY0xQOLoZcfLJGEZMI-1">
          <mxGeometry x="-20" y="325" width="120" height="30" as="geometry" />
        </mxCell>
        <mxCell id="_Jctb87DjZkBqsh5vdE3-7" style="edgeStyle=orthogonalEdgeStyle;rounded=0;orthogonalLoop=1;jettySize=auto;html=1;exitX=1;exitY=0.5;exitDx=0;exitDy=0;entryX=0;entryY=0.5;entryDx=0;entryDy=0;" edge="1" parent="MRjY0xQOLoZcfLJGEZMI-1" source="MRjY0xQOLoZcfLJGEZMI-15" target="_Jctb87DjZkBqsh5vdE3-6">
          <mxGeometry relative="1" as="geometry" />
        </mxCell>
        <mxCell id="MRjY0xQOLoZcfLJGEZMI-15" value="Atender llamada" style="rounded=0;whiteSpace=wrap;html=1;fillColor=light-dark(#C4FFF9,#000000);" vertex="1" parent="MRjY0xQOLoZcfLJGEZMI-1">
          <mxGeometry x="335" y="325" width="80" height="25" as="geometry" />
        </mxCell>
        <mxCell id="MRjY0xQOLoZcfLJGEZMI-22" value="Digital" style="text;html=1;align=center;verticalAlign=middle;resizable=0;points=[];autosize=1;strokeColor=none;fillColor=none;" vertex="1" parent="MRjY0xQOLoZcfLJGEZMI-1">
          <mxGeometry x="390" y="60" width="60" height="30" as="geometry" />
        </mxCell>
        <mxCell id="MRjY0xQOLoZcfLJGEZMI-23" value="Telefónico" style="text;html=1;align=center;verticalAlign=middle;resizable=0;points=[];autosize=1;strokeColor=none;fillColor=none;" vertex="1" parent="MRjY0xQOLoZcfLJGEZMI-1">
          <mxGeometry x="300" y="115" width="80" height="30" as="geometry" />
        </mxCell>
        <mxCell id="MRjY0xQOLoZcfLJGEZMI-27" value="" style="endArrow=none;dashed=1;html=1;rounded=0;entryX=0.942;entryY=0.928;entryDx=0;entryDy=0;entryPerimeter=0;exitX=1.005;exitY=0.211;exitDx=0;exitDy=0;exitPerimeter=0;" edge="1" parent="MRjY0xQOLoZcfLJGEZMI-1" source="MRjY0xQOLoZcfLJGEZMI-6" target="MRjY0xQOLoZcfLJGEZMI-8">
          <mxGeometry width="50" height="50" relative="1" as="geometry">
            <mxPoint x="140" y="260" as="sourcePoint" />
            <mxPoint x="190" y="210" as="targetPoint" />
          </mxGeometry>
        </mxCell>
        <mxCell id="MRjY0xQOLoZcfLJGEZMI-28" value="" style="endArrow=none;dashed=1;html=1;rounded=0;entryX=0.942;entryY=0.928;entryDx=0;entryDy=0;entryPerimeter=0;exitX=0.998;exitY=0.47;exitDx=0;exitDy=0;exitPerimeter=0;" edge="1" parent="MRjY0xQOLoZcfLJGEZMI-1" source="MRjY0xQOLoZcfLJGEZMI-6">
          <mxGeometry width="50" height="50" relative="1" as="geometry">
            <mxPoint x="901" y="280" as="sourcePoint" />
            <mxPoint x="50" y="277" as="targetPoint" />
          </mxGeometry>
        </mxCell>
        <mxCell id="MRjY0xQOLoZcfLJGEZMI-29" value="" style="endArrow=none;dashed=1;html=1;rounded=0;entryX=0.942;entryY=0.928;entryDx=0;entryDy=0;entryPerimeter=0;exitX=1.001;exitY=0.685;exitDx=0;exitDy=0;exitPerimeter=0;" edge="1" parent="MRjY0xQOLoZcfLJGEZMI-1" source="MRjY0xQOLoZcfLJGEZMI-6">
          <mxGeometry width="50" height="50" relative="1" as="geometry">
            <mxPoint x="890.5" y="403" as="sourcePoint" />
            <mxPoint x="39.5" y="400" as="targetPoint" />
          </mxGeometry>
        </mxCell>
        <mxCell id="MRjY0xQOLoZcfLJGEZMI-35" style="edgeStyle=orthogonalEdgeStyle;rounded=0;orthogonalLoop=1;jettySize=auto;html=1;exitX=1;exitY=0.5;exitDx=0;exitDy=0;entryX=0;entryY=0.5;entryDx=0;entryDy=0;" edge="1" parent="MRjY0xQOLoZcfLJGEZMI-1" source="MRjY0xQOLoZcfLJGEZMI-30" target="MRjY0xQOLoZcfLJGEZMI-34">
          <mxGeometry relative="1" as="geometry" />
        </mxCell>
        <mxCell id="MRjY0xQOLoZcfLJGEZMI-30" value="Ver disponibilidad" style="rounded=0;whiteSpace=wrap;html=1;fillColor=light-dark(#C4FFF9,#000000);" vertex="1" parent="MRjY0xQOLoZcfLJGEZMI-1">
          <mxGeometry x="640" y="202.5" width="80" height="25" as="geometry" />
        </mxCell>
        <mxCell id="MRjY0xQOLoZcfLJGEZMI-38" style="edgeStyle=orthogonalEdgeStyle;rounded=0;orthogonalLoop=1;jettySize=auto;html=1;exitX=1;exitY=0.5;exitDx=0;exitDy=0;" edge="1" parent="MRjY0xQOLoZcfLJGEZMI-1" source="MRjY0xQOLoZcfLJGEZMI-34" target="MRjY0xQOLoZcfLJGEZMI-36">
          <mxGeometry relative="1" as="geometry" />
        </mxCell>
        <mxCell id="MRjY0xQOLoZcfLJGEZMI-39" style="edgeStyle=orthogonalEdgeStyle;rounded=0;orthogonalLoop=1;jettySize=auto;html=1;exitX=0.5;exitY=1;exitDx=0;exitDy=0;entryX=0;entryY=0.5;entryDx=0;entryDy=0;" edge="1" parent="MRjY0xQOLoZcfLJGEZMI-1" source="MRjY0xQOLoZcfLJGEZMI-34" target="MRjY0xQOLoZcfLJGEZMI-37">
          <mxGeometry relative="1" as="geometry" />
        </mxCell>
        <mxCell id="MRjY0xQOLoZcfLJGEZMI-34" value="Disponible" style="rhombus;whiteSpace=wrap;html=1;fillColor=light-dark(#FFA826,var(--ge-dark-color, #121212));" vertex="1" parent="MRjY0xQOLoZcfLJGEZMI-1">
          <mxGeometry x="750" y="185" width="80" height="60" as="geometry" />
        </mxCell>
        <mxCell id="_Jctb87DjZkBqsh5vdE3-10" style="edgeStyle=orthogonalEdgeStyle;rounded=0;orthogonalLoop=1;jettySize=auto;html=1;exitX=0.5;exitY=0;exitDx=0;exitDy=0;entryX=0;entryY=0.5;entryDx=0;entryDy=0;" edge="1" parent="MRjY0xQOLoZcfLJGEZMI-1" source="MRjY0xQOLoZcfLJGEZMI-36" target="MRjY0xQOLoZcfLJGEZMI-43">
          <mxGeometry relative="1" as="geometry" />
        </mxCell>
        <mxCell id="MRjY0xQOLoZcfLJGEZMI-36" value="Registrar cita" style="rounded=0;whiteSpace=wrap;html=1;fillColor=light-dark(#C4FFF9,#000000);" vertex="1" parent="MRjY0xQOLoZcfLJGEZMI-1">
          <mxGeometry x="900" y="170" width="80" height="25" as="geometry" />
        </mxCell>
        <mxCell id="_Jctb87DjZkBqsh5vdE3-36" style="edgeStyle=orthogonalEdgeStyle;rounded=0;orthogonalLoop=1;jettySize=auto;html=1;exitX=0.5;exitY=1;exitDx=0;exitDy=0;entryX=0.5;entryY=0;entryDx=0;entryDy=0;" edge="1" parent="MRjY0xQOLoZcfLJGEZMI-1" source="MRjY0xQOLoZcfLJGEZMI-37" target="_Jctb87DjZkBqsh5vdE3-35">
          <mxGeometry relative="1" as="geometry" />
        </mxCell>
        <mxCell id="MRjY0xQOLoZcfLJGEZMI-37" value="Reprogramar" style="rounded=0;whiteSpace=wrap;html=1;fillColor=light-dark(#C4FFF9,#000000);" vertex="1" parent="MRjY0xQOLoZcfLJGEZMI-1">
          <mxGeometry x="900" y="240" width="80" height="25" as="geometry" />
        </mxCell>
        <mxCell id="MRjY0xQOLoZcfLJGEZMI-40" value="Si" style="text;html=1;align=center;verticalAlign=middle;resizable=0;points=[];autosize=1;strokeColor=none;fillColor=none;" vertex="1" parent="MRjY0xQOLoZcfLJGEZMI-1">
          <mxGeometry x="825" y="185" width="30" height="30" as="geometry" />
        </mxCell>
        <mxCell id="MRjY0xQOLoZcfLJGEZMI-41" value="No" style="text;html=1;align=center;verticalAlign=middle;resizable=0;points=[];autosize=1;strokeColor=none;fillColor=none;" vertex="1" parent="MRjY0xQOLoZcfLJGEZMI-1">
          <mxGeometry x="790" y="240" width="40" height="30" as="geometry" />
        </mxCell>
        <mxCell id="_Jctb87DjZkBqsh5vdE3-12" style="edgeStyle=orthogonalEdgeStyle;rounded=0;orthogonalLoop=1;jettySize=auto;html=1;exitX=1;exitY=0.5;exitDx=0;exitDy=0;entryX=0;entryY=0.5;entryDx=0;entryDy=0;" edge="1" parent="MRjY0xQOLoZcfLJGEZMI-1" source="MRjY0xQOLoZcfLJGEZMI-43" target="_Jctb87DjZkBqsh5vdE3-11">
          <mxGeometry relative="1" as="geometry" />
        </mxCell>
        <mxCell id="MRjY0xQOLoZcfLJGEZMI-43" value="Notificar Fecha / hora / lugar&amp;nbsp; de la cita" style="rounded=0;whiteSpace=wrap;html=1;fillColor=light-dark(#C4FFF9,#000000);" vertex="1" parent="MRjY0xQOLoZcfLJGEZMI-1">
          <mxGeometry x="1030" y="67.5" width="90" height="47.5" as="geometry" />
        </mxCell>
        <mxCell id="MRjY0xQOLoZcfLJGEZMI-47" value="" style="ellipse;whiteSpace=wrap;html=1;aspect=fixed;fillColor=light-dark(#CC0000,var(--ge-dark-color, #121212));" vertex="1" parent="MRjY0xQOLoZcfLJGEZMI-1">
          <mxGeometry x="1440" y="76.25" width="40" height="40" as="geometry" />
        </mxCell>
        <mxCell id="MRjY0xQOLoZcfLJGEZMI-52" value="" style="rounded=0;whiteSpace=wrap;html=1;" vertex="1" parent="MRjY0xQOLoZcfLJGEZMI-1">
          <mxGeometry x="30" y="400" width="20" height="80" as="geometry" />
        </mxCell>
        <mxCell id="MRjY0xQOLoZcfLJGEZMI-50" value="Historial" style="text;html=1;align=center;verticalAlign=middle;resizable=0;points=[];autosize=1;strokeColor=none;fillColor=none;rotation=-90;" vertex="1" parent="MRjY0xQOLoZcfLJGEZMI-1">
          <mxGeometry x="5" y="425" width="70" height="30" as="geometry" />
        </mxCell>
        <mxCell id="MRjY0xQOLoZcfLJGEZMI-53" value="" style="rounded=0;whiteSpace=wrap;html=1;" vertex="1" parent="MRjY0xQOLoZcfLJGEZMI-1">
          <mxGeometry x="30" y="480" width="20" height="90" as="geometry" />
        </mxCell>
        <mxCell id="MRjY0xQOLoZcfLJGEZMI-54" value="Facturación" style="text;html=1;align=center;verticalAlign=middle;resizable=0;points=[];autosize=1;strokeColor=none;fillColor=none;rotation=-90;" vertex="1" parent="MRjY0xQOLoZcfLJGEZMI-1">
          <mxGeometry x="-5" y="505" width="90" height="30" as="geometry" />
        </mxCell>
        <mxCell id="MRjY0xQOLoZcfLJGEZMI-55" value="añadir al historial" style="rounded=0;whiteSpace=wrap;html=1;fillColor=light-dark(#C4FFF9,#000000);" vertex="1" parent="MRjY0xQOLoZcfLJGEZMI-1">
          <mxGeometry x="1340" y="415" width="80" height="25" as="geometry" />
        </mxCell>
        <mxCell id="MRjY0xQOLoZcfLJGEZMI-56" value="Generar factura" style="rounded=0;whiteSpace=wrap;html=1;fillColor=light-dark(#C4FFF9,#000000);" vertex="1" parent="MRjY0xQOLoZcfLJGEZMI-1">
          <mxGeometry x="1320" y="512.5" width="80" height="25" as="geometry" />
        </mxCell>
        <mxCell id="MRjY0xQOLoZcfLJGEZMI-59" value="Proceso de Agendamiento" style="text;html=1;align=center;verticalAlign=middle;resizable=0;points=[];autosize=1;strokeColor=none;fillColor=none;rotation=-90;" vertex="1" parent="MRjY0xQOLoZcfLJGEZMI-1">
          <mxGeometry x="-70" y="325" width="160" height="30" as="geometry" />
        </mxCell>
        <mxCell id="_Jctb87DjZkBqsh5vdE3-32" style="edgeStyle=orthogonalEdgeStyle;rounded=0;orthogonalLoop=1;jettySize=auto;html=1;exitX=1;exitY=0.5;exitDx=0;exitDy=0;entryX=0.5;entryY=0;entryDx=0;entryDy=0;" edge="1" parent="MRjY0xQOLoZcfLJGEZMI-1" source="_Jctb87DjZkBqsh5vdE3-3" target="_Jctb87DjZkBqsh5vdE3-29">
          <mxGeometry relative="1" as="geometry" />
        </mxCell>
        <mxCell id="_Jctb87DjZkBqsh5vdE3-3" value="Escoger Fecha / hora / lugar" style="rounded=0;whiteSpace=wrap;html=1;fillColor=light-dark(#C4FFF9,var(--ge-dark-color, #121212));" vertex="1" parent="MRjY0xQOLoZcfLJGEZMI-1">
          <mxGeometry x="460" y="78.75" width="110" height="27.5" as="geometry" />
        </mxCell>
        <mxCell id="_Jctb87DjZkBqsh5vdE3-38" style="edgeStyle=orthogonalEdgeStyle;rounded=0;orthogonalLoop=1;jettySize=auto;html=1;exitX=1;exitY=0.5;exitDx=0;exitDy=0;entryX=0.5;entryY=0;entryDx=0;entryDy=0;" edge="1" parent="MRjY0xQOLoZcfLJGEZMI-1" source="_Jctb87DjZkBqsh5vdE3-6" target="_Jctb87DjZkBqsh5vdE3-37">
          <mxGeometry relative="1" as="geometry" />
        </mxCell>
        <mxCell id="_Jctb87DjZkBqsh5vdE3-6" value="Proponer Fecha / hora / lugar" style="rounded=0;whiteSpace=wrap;html=1;fillColor=light-dark(#C4FFF9,var(--ge-dark-color, #121212));" vertex="1" parent="MRjY0xQOLoZcfLJGEZMI-1">
          <mxGeometry x="480" y="310" width="110" height="27.5" as="geometry" />
        </mxCell>
        <mxCell id="_Jctb87DjZkBqsh5vdE3-15" style="edgeStyle=orthogonalEdgeStyle;rounded=0;orthogonalLoop=1;jettySize=auto;html=1;exitX=1;exitY=0.5;exitDx=0;exitDy=0;entryX=0;entryY=0.5;entryDx=0;entryDy=0;" edge="1" parent="MRjY0xQOLoZcfLJGEZMI-1" source="_Jctb87DjZkBqsh5vdE3-11" target="_Jctb87DjZkBqsh5vdE3-14">
          <mxGeometry relative="1" as="geometry" />
        </mxCell>
        <mxCell id="_Jctb87DjZkBqsh5vdE3-25" style="edgeStyle=orthogonalEdgeStyle;rounded=0;orthogonalLoop=1;jettySize=auto;html=1;exitX=0.5;exitY=1;exitDx=0;exitDy=0;entryX=0.5;entryY=0;entryDx=0;entryDy=0;" edge="1" parent="MRjY0xQOLoZcfLJGEZMI-1" source="_Jctb87DjZkBqsh5vdE3-11" target="_Jctb87DjZkBqsh5vdE3-24">
          <mxGeometry relative="1" as="geometry" />
        </mxCell>
        <mxCell id="_Jctb87DjZkBqsh5vdE3-11" value="Confirma" style="rhombus;whiteSpace=wrap;html=1;fillColor=light-dark(#FFA826,var(--ge-dark-color, #121212));" vertex="1" parent="MRjY0xQOLoZcfLJGEZMI-1">
          <mxGeometry x="1160" y="61.25" width="80" height="60" as="geometry" />
        </mxCell>
        <mxCell id="_Jctb87DjZkBqsh5vdE3-20" style="edgeStyle=orthogonalEdgeStyle;rounded=0;orthogonalLoop=1;jettySize=auto;html=1;exitX=1;exitY=0.5;exitDx=0;exitDy=0;entryX=0;entryY=0.5;entryDx=0;entryDy=0;" edge="1" parent="MRjY0xQOLoZcfLJGEZMI-1" source="_Jctb87DjZkBqsh5vdE3-13" target="MRjY0xQOLoZcfLJGEZMI-47">
          <mxGeometry relative="1" as="geometry" />
        </mxCell>
        <mxCell id="_Jctb87DjZkBqsh5vdE3-13" value="Notificar Confirmación" style="rounded=0;whiteSpace=wrap;html=1;fillColor=light-dark(#C4FFF9,#000000);" vertex="1" parent="MRjY0xQOLoZcfLJGEZMI-1">
          <mxGeometry x="1285" y="77.5" width="100" height="37.5" as="geometry" />
        </mxCell>
        <mxCell id="_Jctb87DjZkBqsh5vdE3-19" style="edgeStyle=orthogonalEdgeStyle;rounded=0;orthogonalLoop=1;jettySize=auto;html=1;exitX=1;exitY=0.5;exitDx=0;exitDy=0;entryX=0.5;entryY=1;entryDx=0;entryDy=0;" edge="1" parent="MRjY0xQOLoZcfLJGEZMI-1" source="_Jctb87DjZkBqsh5vdE3-14" target="_Jctb87DjZkBqsh5vdE3-13">
          <mxGeometry relative="1" as="geometry" />
        </mxCell>
        <mxCell id="_Jctb87DjZkBqsh5vdE3-42" style="edgeStyle=orthogonalEdgeStyle;rounded=0;orthogonalLoop=1;jettySize=auto;html=1;exitX=0.25;exitY=1;exitDx=0;exitDy=0;entryX=0;entryY=0.5;entryDx=0;entryDy=0;" edge="1" parent="MRjY0xQOLoZcfLJGEZMI-1" source="_Jctb87DjZkBqsh5vdE3-14" target="MRjY0xQOLoZcfLJGEZMI-55">
          <mxGeometry relative="1" as="geometry" />
        </mxCell>
        <mxCell id="_Jctb87DjZkBqsh5vdE3-43" style="edgeStyle=orthogonalEdgeStyle;rounded=0;orthogonalLoop=1;jettySize=auto;html=1;exitX=0;exitY=1;exitDx=0;exitDy=0;entryX=0;entryY=0.25;entryDx=0;entryDy=0;" edge="1" parent="MRjY0xQOLoZcfLJGEZMI-1" source="_Jctb87DjZkBqsh5vdE3-14" target="MRjY0xQOLoZcfLJGEZMI-56">
          <mxGeometry relative="1" as="geometry" />
        </mxCell>
        <mxCell id="_Jctb87DjZkBqsh5vdE3-14" value="Confirmar Cita" style="rounded=0;whiteSpace=wrap;html=1;fillColor=light-dark(#C4FFF9,#000000);" vertex="1" parent="MRjY0xQOLoZcfLJGEZMI-1">
          <mxGeometry x="1280" y="207.5" width="100" height="37.5" as="geometry" />
        </mxCell>
        <mxCell id="_Jctb87DjZkBqsh5vdE3-16" value="Si" style="text;html=1;align=center;verticalAlign=middle;resizable=0;points=[];autosize=1;strokeColor=none;fillColor=none;" vertex="1" parent="MRjY0xQOLoZcfLJGEZMI-1">
          <mxGeometry x="1230" y="65" width="30" height="30" as="geometry" />
        </mxCell>
        <mxCell id="_Jctb87DjZkBqsh5vdE3-24" value="" style="ellipse;whiteSpace=wrap;html=1;aspect=fixed;fillColor=light-dark(#CC0000,var(--ge-dark-color, #121212));" vertex="1" parent="MRjY0xQOLoZcfLJGEZMI-1">
          <mxGeometry x="1180" y="317.5" width="40" height="40" as="geometry" />
        </mxCell>
        <mxCell id="_Jctb87DjZkBqsh5vdE3-26" value="No" style="text;html=1;align=center;verticalAlign=middle;resizable=0;points=[];autosize=1;strokeColor=none;fillColor=none;" vertex="1" parent="MRjY0xQOLoZcfLJGEZMI-1">
          <mxGeometry x="1195" y="112.5" width="40" height="30" as="geometry" />
        </mxCell>
        <mxCell id="_Jctb87DjZkBqsh5vdE3-27" value="Proceso finalizado&lt;div&gt;exito&lt;/div&gt;" style="text;html=1;align=center;verticalAlign=middle;resizable=0;points=[];autosize=1;strokeColor=none;fillColor=none;" vertex="1" parent="MRjY0xQOLoZcfLJGEZMI-1">
          <mxGeometry x="1400" y="115" width="120" height="40" as="geometry" />
        </mxCell>
        <mxCell id="_Jctb87DjZkBqsh5vdE3-28" value="Proceso de reprogramacion" style="text;html=1;align=center;verticalAlign=middle;resizable=0;points=[];autosize=1;strokeColor=none;fillColor=none;" vertex="1" parent="MRjY0xQOLoZcfLJGEZMI-1">
          <mxGeometry x="1115" y="362.5" width="170" height="30" as="geometry" />
        </mxCell>
        <mxCell id="_Jctb87DjZkBqsh5vdE3-33" style="edgeStyle=orthogonalEdgeStyle;rounded=0;orthogonalLoop=1;jettySize=auto;html=1;exitX=1;exitY=0.5;exitDx=0;exitDy=0;entryX=0.25;entryY=0;entryDx=0;entryDy=0;" edge="1" parent="MRjY0xQOLoZcfLJGEZMI-1" source="_Jctb87DjZkBqsh5vdE3-29" target="MRjY0xQOLoZcfLJGEZMI-36">
          <mxGeometry relative="1" as="geometry">
            <Array as="points">
              <mxPoint x="600" y="210" />
              <mxPoint x="600" y="170" />
              <mxPoint x="728" y="170" />
              <mxPoint x="728" y="160" />
              <mxPoint x="920" y="160" />
            </Array>
          </mxGeometry>
        </mxCell>
        <mxCell id="_Jctb87DjZkBqsh5vdE3-34" style="edgeStyle=orthogonalEdgeStyle;rounded=0;orthogonalLoop=1;jettySize=auto;html=1;exitX=0.5;exitY=1;exitDx=0;exitDy=0;entryX=0.25;entryY=1;entryDx=0;entryDy=0;" edge="1" parent="MRjY0xQOLoZcfLJGEZMI-1" source="_Jctb87DjZkBqsh5vdE3-29" target="_Jctb87DjZkBqsh5vdE3-3">
          <mxGeometry relative="1" as="geometry" />
        </mxCell>
        <mxCell id="_Jctb87DjZkBqsh5vdE3-29" value="Disponible" style="rhombus;whiteSpace=wrap;html=1;fillColor=light-dark(#FFA826,var(--ge-dark-color, #121212));" vertex="1" parent="MRjY0xQOLoZcfLJGEZMI-1">
          <mxGeometry x="475" y="180" width="80" height="60" as="geometry" />
        </mxCell>
        <mxCell id="_Jctb87DjZkBqsh5vdE3-30" value="Si" style="text;html=1;align=center;verticalAlign=middle;resizable=0;points=[];autosize=1;strokeColor=none;fillColor=none;" vertex="1" parent="MRjY0xQOLoZcfLJGEZMI-1">
          <mxGeometry x="540" y="185" width="30" height="30" as="geometry" />
        </mxCell>
        <mxCell id="_Jctb87DjZkBqsh5vdE3-31" value="No" style="text;html=1;align=center;verticalAlign=middle;resizable=0;points=[];autosize=1;strokeColor=none;fillColor=none;" vertex="1" parent="MRjY0xQOLoZcfLJGEZMI-1">
          <mxGeometry x="480" y="227.5" width="40" height="30" as="geometry" />
        </mxCell>
        <mxCell id="_Jctb87DjZkBqsh5vdE3-35" value="Notificar falta de disponiblidad" style="rounded=0;whiteSpace=wrap;html=1;fillColor=light-dark(#C4FFF9,#000000);" vertex="1" parent="MRjY0xQOLoZcfLJGEZMI-1">
          <mxGeometry x="880" y="317.5" width="100" height="42.5" as="geometry" />
        </mxCell>
        <mxCell id="_Jctb87DjZkBqsh5vdE3-39" style="edgeStyle=orthogonalEdgeStyle;rounded=0;orthogonalLoop=1;jettySize=auto;html=1;exitX=0.5;exitY=1;exitDx=0;exitDy=0;entryX=0.5;entryY=0;entryDx=0;entryDy=0;" edge="1" parent="MRjY0xQOLoZcfLJGEZMI-1" source="_Jctb87DjZkBqsh5vdE3-37" target="MRjY0xQOLoZcfLJGEZMI-30">
          <mxGeometry relative="1" as="geometry" />
        </mxCell>
        <mxCell id="_Jctb87DjZkBqsh5vdE3-37" value="Escoger Fecha / hora / lugar" style="rounded=0;whiteSpace=wrap;html=1;fillColor=light-dark(#C4FFF9,var(--ge-dark-color, #121212));" vertex="1" parent="MRjY0xQOLoZcfLJGEZMI-1">
          <mxGeometry x="650" y="77.5" width="110" height="27.5" as="geometry" />
        </mxCell>
        <mxCell id="_Jctb87DjZkBqsh5vdE3-40" style="edgeStyle=orthogonalEdgeStyle;rounded=0;orthogonalLoop=1;jettySize=auto;html=1;exitX=0;exitY=0.5;exitDx=0;exitDy=0;entryX=0.436;entryY=0.996;entryDx=0;entryDy=0;entryPerimeter=0;" edge="1" parent="MRjY0xQOLoZcfLJGEZMI-1" source="_Jctb87DjZkBqsh5vdE3-35" target="_Jctb87DjZkBqsh5vdE3-6">
          <mxGeometry relative="1" as="geometry" />
        </mxCell>
        <mxCell id="_Jctb87DjZkBqsh5vdE3-41" value="" style="endArrow=none;dashed=1;html=1;rounded=0;entryX=0.942;entryY=1.158;entryDx=0;entryDy=0;entryPerimeter=0;" edge="1" parent="MRjY0xQOLoZcfLJGEZMI-1" target="MRjY0xQOLoZcfLJGEZMI-54">
          <mxGeometry width="50" height="50" relative="1" as="geometry">
            <mxPoint x="1520" y="483" as="sourcePoint" />
            <mxPoint x="105" y="480" as="targetPoint" />
          </mxGeometry>
        </mxCell>
      </root>
    </mxGraphModel>
  </diagram>
</mxfile>
